<?xml version="1.0" encoding="UTF-8" standalone="no"?>
<!-- Generator: Adobe Illustrator 18.1.1, SVG Export Plug-In . SVG Version: 6.00 Build 0)  -->

<svg
   xmlns:dc="http://purl.org/dc/elements/1.1/"
   xmlns:cc="http://creativecommons.org/ns#"
   xmlns:rdf="http://www.w3.org/1999/02/22-rdf-syntax-ns#"
   xmlns:svg="http://www.w3.org/2000/svg"
   xmlns="http://www.w3.org/2000/svg"
   xmlns:sodipodi="http://sodipodi.sourceforge.net/DTD/sodipodi-0.dtd"
   xmlns:inkscape="http://www.inkscape.org/namespaces/inkscape"
   version="1.1"
   id="Capa_1"
   x="0px"
   y="0px"
   viewBox="0 0 16 16"
   style="enable-background:new 0 0 16 16;"
   xml:space="preserve"
   inkscape:version="0.48.5 r10040"
   width="100%"
   height="100%"
   sodipodi:docname="rssSmall.svg"><metadata
     id="metadata5099"><rdf:RDF><cc:Work
         rdf:about=""><dc:format>image/svg+xml</dc:format><dc:type
           rdf:resource="http://purl.org/dc/dcmitype/StillImage" /><dc:title /></cc:Work></rdf:RDF></metadata><defs
     id="defs5097" /><sodipodi:namedview
     pagecolor="#ffffff"
     bordercolor="#666666"
     borderopacity="1"
     objecttolerance="10"
     gridtolerance="10"
     guidetolerance="10"
     inkscape:pageopacity="0"
     inkscape:pageshadow="2"
     inkscape:window-width="717"
     inkscape:window-height="480"
     id="namedview5095"
     showgrid="false"
     inkscape:zoom="14.75"
     inkscape:cx="-4"
     inkscape:cy="8"
     inkscape:window-x="0"
     inkscape:window-y="0"
     inkscape:window-maximized="0"
     inkscape:current-layer="g5061" /><g
     id="g5061"><path
       style="fill:#f64100;fill-opacity:1"
       d="M8,0C3.582,0,0,3.582,0,8s3.582,8,8,8s8-3.582,8-8C16,3.581,12.418,0,8,0z M4.315,12.977   c-0.719,0-1.303-0.58-1.303-1.299c0-0.714,0.584-1.301,1.303-1.301c0.721,0,1.304,0.587,1.305,1.301   C5.62,12.396,5.037,12.977,4.315,12.977z M7.589,12.988c0-1.228-0.477-2.381-1.341-3.243C5.384,8.879,4.235,8.401,3.014,8.401   V6.525c3.561,0,6.46,2.899,6.46,6.463H7.589z M10.918,12.986c0-4.361-3.545-7.91-7.902-7.91V3.2c5.394,0,9.784,4.392,9.784,9.786   H10.918z"
       id="path5063" /></g><g
     id="g5065" /><g
     id="g5067" /><g
     id="g5069" /><g
     id="g5071" /><g
     id="g5073" /><g
     id="g5075" /><g
     id="g5077" /><g
     id="g5079" /><g
     id="g5081" /><g
     id="g5083" /><g
     id="g5085" /><g
     id="g5087" /><g
     id="g5089" /><g
     id="g5091" /><g
     id="g5093" /></svg>