<?xml version="1.0" encoding="UTF-8" standalone="no"?>
<!-- Created with Inkscape (http://www.inkscape.org/) -->

<svg
   xmlns:dc="http://purl.org/dc/elements/1.1/"
   xmlns:cc="http://creativecommons.org/ns#"
   xmlns:rdf="http://www.w3.org/1999/02/22-rdf-syntax-ns#"
   xmlns:svg="http://www.w3.org/2000/svg"
   xmlns="http://www.w3.org/2000/svg"
   xmlns:sodipodi="http://sodipodi.sourceforge.net/DTD/sodipodi-0.dtd"
   xmlns:inkscape="http://www.inkscape.org/namespaces/inkscape"
   version="1.1"
   width="512"
   height="512"
   viewBox="0 0 77.015 77.015"
   id="Capa_1"
   xml:space="preserve"
   inkscape:version="0.48.5 r10040"
   sodipodi:docname="empty-beer-bottle-cip.svg"><sodipodi:namedview
     pagecolor="#ffffff"
     bordercolor="#666666"
     borderopacity="1"
     objecttolerance="10"
     gridtolerance="10"
     guidetolerance="10"
     inkscape:pageopacity="0"
     inkscape:pageshadow="2"
     inkscape:window-width="721"
     inkscape:window-height="480"
     id="namedview21"
     showgrid="false"
     inkscape:zoom="0.4609375"
     inkscape:cx="256"
     inkscape:cy="256"
     inkscape:window-x="0"
     inkscape:window-y="0"
     inkscape:window-maximized="0"
     inkscape:current-layer="Capa_1" /><metadata
     id="metadata3223"><rdf:RDF><cc:Work
         rdf:about=""><dc:format>image/svg+xml</dc:format><dc:type
           rdf:resource="http://purl.org/dc/dcmitype/StillImage" /><dc:title /></cc:Work></rdf:RDF></metadata><defs
     id="defs3221" /><path
     d="m 252.09375,0 c -5.51642,0.03006703 -10.84239,0.64413199 -14.78125,1.21875 l 38,0 C 271.20852,0.62708119 265.57004,0 259.78125,0 c -1.26978,0 -2.55593,0.04522333 -3.1875,0.125 -1.49581,-0.08808674 -2.99679,-0.13319321 -4.5,-0.125 z m 23.21875,1.21875 c 3.55962,0.5131878 5.9837,1.0192692 6.1875,1.0625 0.8576,0.1794975 1.67031,0.5619056 2.375,1.09375 4.79325,3.6231903 5.7633,7.559528 5.75,10.21875 -0.0199,2.918496 -1.20096,5.239578 -2.4375,6.875 l 13.375,140.5 c 0.0332,27.66921 10.29988,38.26863 10.40625,38.375 24.11915,22.12473 22.9195,47.1288 22.59375,50.71875 l -0.65625,217.28125 c 0,22.91585 -11.78238,30.08333 -15.3125,31.71875 -16.89936,10.92276 -52.40737,12.64698 -60.84375,12.90625 -0.23933,0.0266 -0.50402,0.0312 -0.75,0.0312 -0.18615,0 -0.78925,-0.005 -0.96875,-0.0312 -7.25968,-0.19279 -44.11932,-1.67967 -61.4375,-12.875 -3.53012,-1.63542 -15.28125,-8.85211 -15.28125,-31.78125 l 0.65625,-217.25 c -0.31246,-3.66973 -1.44892,-28.65254 22.75,-50.84375 -0.0332,-0.0133 5.20679,-6.60796 10.3125,-38.625 L 225.375,20.46875 c -1.23654,-1.635422 -2.41756,-3.956504 -2.4375,-6.875 -0.0133,-2.659222 0.9501,-6.5955597 5.75,-10.21875 0.69805,-0.5318444 1.542,-0.9142525 2.40625,-1.09375 0.20479,-0.041512 2.64428,-0.5410416 6.21875,-1.0625 l -236.21875,0 0,512.5 512,0 0,-512.5 -237.78125,0 z"
     transform="scale(0.15041992,0.15041992)"
     id="rect3227"
     style="fill:#b3b3b3;fill-opacity:1;stroke:#000000;stroke-width:1.00261461999999990;stroke-opacity:0" /><g
     id="g3189" /><g
     id="g3191" /><g
     id="g3193" /><g
     id="g3195" /><g
     id="g3197" /><g
     id="g3199" /><g
     id="g3201" /><g
     id="g3203" /><g
     id="g3205" /><g
     id="g3207" /><g
     id="g3209" /><g
     id="g3211" /><g
     id="g3213" /><g
     id="g3215" /><g
     id="g3217" /></svg>