<?xml version="1.0" encoding="UTF-8" standalone="no"?>
<!-- Generator: Adobe Illustrator 18.1.1, SVG Export Plug-In . SVG Version: 6.00 Build 0)  -->

<svg
   xmlns:dc="http://purl.org/dc/elements/1.1/"
   xmlns:cc="http://creativecommons.org/ns#"
   xmlns:rdf="http://www.w3.org/1999/02/22-rdf-syntax-ns#"
   xmlns:svg="http://www.w3.org/2000/svg"
   xmlns="http://www.w3.org/2000/svg"
   xmlns:sodipodi="http://sodipodi.sourceforge.net/DTD/sodipodi-0.dtd"
   xmlns:inkscape="http://www.inkscape.org/namespaces/inkscape"
   version="1.1"
   id="Capa_1"
   x="0px"
   y="0px"
   viewBox="0 0 344.963 344.963"
   style="enable-background:new 0 0 344.963 344.963;"
   xml:space="preserve"
   inkscape:version="0.48.5 r10040"
   width="100%"
   height="100%"
   sodipodi:docname="approved.svg"><metadata
     id="metadata3103"><rdf:RDF><cc:Work
         rdf:about=""><dc:format>image/svg+xml</dc:format><dc:type
           rdf:resource="http://purl.org/dc/dcmitype/StillImage" /></cc:Work></rdf:RDF></metadata><defs
     id="defs3101" /><sodipodi:namedview
     pagecolor="#ffffff"
     bordercolor="#666666"
     borderopacity="1"
     objecttolerance="10"
     gridtolerance="10"
     guidetolerance="10"
     inkscape:pageopacity="0"
     inkscape:pageshadow="2"
     inkscape:window-width="717"
     inkscape:window-height="480"
     id="namedview3099"
     showgrid="false"
     inkscape:zoom="0.68413134"
     inkscape:cx="172.4815"
     inkscape:cy="172.4815"
     inkscape:window-x="0"
     inkscape:window-y="0"
     inkscape:window-maximized="0"
     inkscape:current-layer="g3065" /><g
     id="g3065"><path
       style="fill:#f64100;fill-opacity:1"
       d="M321.847,86.242l-40.026-23.11l-23.104-40.02h-46.213l-40.026-23.11l-40.026,23.11H86.239   l-23.11,40.026L23.11,86.242v46.213L0,172.481l23.11,40.026v46.213l40.026,23.11l23.11,40.026h46.213l40.02,23.104l40.026-23.11   h46.213l23.11-40.026l40.026-23.11v-46.213l23.11-40.026l-23.11-40.026V86.242H321.847z M156.911,243.075   c-3.216,3.216-7.453,4.779-11.671,4.72c-4.219,0.06-8.455-1.504-11.671-4.72l-50.444-50.444c-6.319-6.319-6.319-16.57,0-22.889   l13.354-13.354c6.319-6.319,16.57-6.319,22.889,0l25.872,25.872l80.344-80.35c6.319-6.319,16.57-6.319,22.889,0l13.354,13.354   c6.319,6.319,6.319,16.57,0,22.889L156.911,243.075z"
       id="path3067" /></g><g
     id="g3069" /><g
     id="g3071" /><g
     id="g3073" /><g
     id="g3075" /><g
     id="g3077" /><g
     id="g3079" /><g
     id="g3081" /><g
     id="g3083" /><g
     id="g3085" /><g
     id="g3087" /><g
     id="g3089" /><g
     id="g3091" /><g
     id="g3093" /><g
     id="g3095" /><g
     id="g3097" /></svg>