<?xml version="1.0" encoding="UTF-8" standalone="no"?>
<!-- Generator: Adobe Illustrator 16.0.0, SVG Export Plug-In . SVG Version: 6.00 Build 0)  -->

<svg
   xmlns:dc="http://purl.org/dc/elements/1.1/"
   xmlns:cc="http://creativecommons.org/ns#"
   xmlns:rdf="http://www.w3.org/1999/02/22-rdf-syntax-ns#"
   xmlns:svg="http://www.w3.org/2000/svg"
   xmlns="http://www.w3.org/2000/svg"
   xmlns:sodipodi="http://sodipodi.sourceforge.net/DTD/sodipodi-0.dtd"
   xmlns:inkscape="http://www.inkscape.org/namespaces/inkscape"
   version="1.1"
   id="Layer_1"
   x="0px"
   y="0px"
   width="50px"
   height="50px"
   viewBox="0 0 50 50"
   enable-background="new 0 0 50 50"
   xml:space="preserve"
   inkscape:version="0.48.5 r10040"
   sodipodi:docname="hand120.svg"><metadata
     id="metadata13"><rdf:RDF><cc:Work
         rdf:about=""><dc:format>image/svg+xml</dc:format><dc:type
           rdf:resource="http://purl.org/dc/dcmitype/StillImage" /></cc:Work></rdf:RDF></metadata><defs
     id="defs11" /><sodipodi:namedview
     pagecolor="#ffffff"
     bordercolor="#666666"
     borderopacity="1"
     objecttolerance="10"
     gridtolerance="10"
     guidetolerance="10"
     inkscape:pageopacity="0"
     inkscape:pageshadow="2"
     inkscape:window-width="640"
     inkscape:window-height="480"
     id="namedview9"
     showgrid="false"
     inkscape:zoom="4.72"
     inkscape:cx="25"
     inkscape:cy="25"
     inkscape:window-x="0"
     inkscape:window-y="0"
     inkscape:window-maximized="0"
     inkscape:current-layer="Layer_1" /><g
     id="g3"
     style="fill:#ffffff"><path
       d="M46.875,5.354H3.125C1.402,5.354,0,6.755,0,8.479v28.125c0,1.724,1.402,3.125,3.125,3.125h17.911   c-0.681-1.194-1.517-2.728-2.557-4.688H4.688v-25h40.625v25h-2.062v3.373c0,0.108-0.014,0.61-0.128,1.314h3.752   c1.723,0,3.125-1.401,3.125-3.125V8.479C50,6.755,48.598,5.354,46.875,5.354z M47.64,24.104c-0.864,0-1.562-0.699-1.562-1.562   c0-0.863,0.697-1.563,1.562-1.563c0.862,0,1.563,0.701,1.563,1.563C49.203,23.404,48.502,24.104,47.64,24.104z"
       id="path5"
       style="fill:#ffffff" /><path
       d="M39.052,22.906h-0.176c-1.025,0-1.859,0.832-1.859,1.855v1.658H36.79v-1.658c0-1.023-0.836-1.855-1.856-1.855h-0.182   c-1.022,0-1.854,0.832-1.854,1.855v1.658h-0.23v-1.658c0-1.023-0.834-1.855-1.853-1.855h-0.184c-1.02,0-1.854,0.832-1.854,1.855   v1.658h-0.121V15.824c0-1.029-0.833-1.866-1.866-1.866l-0.18-0.001c-1.028,0-1.864,0.837-1.864,1.867v16.209   c-0.498-0.562-0.936-1.134-1.337-1.651c-0.892-1.155-1.593-2.069-2.385-2.251c-0.879-0.209-1.691,0.084-2.082,0.718   c-0.367,0.603-0.311,1.432,0.153,2.333c1.016,1.943,5.897,10.478,5.9,10.478c0.386,0.935,2.089,3.987,7.824,3.987v-0.204   l0.005,0.204c4.17,0,6.145-1.968,7.068-3.618c0.997-1.783,1.013-3.539,1.013-3.615V24.761   C40.907,23.737,40.071,22.906,39.052,22.906z"
       id="path7"
       style="fill:#ffffff" /></g></svg>