<?xml version="1.0" encoding="UTF-8" standalone="no"?>
<!-- Generator: Adobe Illustrator 16.0.4, SVG Export Plug-In . SVG Version: 6.00 Build 0)  -->

<svg
   xmlns:dc="http://purl.org/dc/elements/1.1/"
   xmlns:cc="http://creativecommons.org/ns#"
   xmlns:rdf="http://www.w3.org/1999/02/22-rdf-syntax-ns#"
   xmlns:svg="http://www.w3.org/2000/svg"
   xmlns="http://www.w3.org/2000/svg"
   xmlns:sodipodi="http://sodipodi.sourceforge.net/DTD/sodipodi-0.dtd"
   xmlns:inkscape="http://www.inkscape.org/namespaces/inkscape"
   version="1.1"
   id="Capa_1"
   x="0px"
   y="0px"
   width="16px"
   height="16px"
   viewBox="0 0 16 16"
   enable-background="new 0 0 16 16"
   xml:space="preserve"
   inkscape:version="0.48.5 r10040"
   sodipodi:docname="linkedinSmall.svg"><metadata
     id="metadata3489"><rdf:RDF><cc:Work
         rdf:about=""><dc:format>image/svg+xml</dc:format><dc:type
           rdf:resource="http://purl.org/dc/dcmitype/StillImage" /><dc:title /></cc:Work></rdf:RDF></metadata><defs
     id="defs3487" /><sodipodi:namedview
     pagecolor="#ffffff"
     bordercolor="#666666"
     borderopacity="1"
     objecttolerance="10"
     gridtolerance="10"
     guidetolerance="10"
     inkscape:pageopacity="0"
     inkscape:pageshadow="2"
     inkscape:window-width="717"
     inkscape:window-height="480"
     id="namedview3485"
     showgrid="false"
     inkscape:zoom="14.75"
     inkscape:cx="-4"
     inkscape:cy="8"
     inkscape:window-x="0"
     inkscape:window-y="0"
     inkscape:window-maximized="0"
     inkscape:current-layer="Capa_1" /><path
     d="M8,0C3.582,0,0,3.582,0,8s3.582,8,8,8s8-3.582,8-8C16,3.581,12.418,0,8,0z M6,11.875H4v-7h2V11.875z M5.062,4.446  c-0.518,0-0.937-0.42-0.937-0.938c0-0.518,0.42-0.938,0.937-0.938C5.58,2.571,6,2.991,6,3.508C6,4.026,5.58,4.446,5.062,4.446z   M13,11.875h-2V7.547c0-0.507-0.145-0.862-0.768-0.862C9.199,6.685,9,7.547,9,7.547v4.328H7v-7h2v0.669c0.286-0.219,1-0.668,2-0.668  c0.648,0,2,0.388,2,2.732V11.875z"
     id="path3483"
     style="fill:#f64100;fill-opacity:1" /></svg>